<svg id="visual" viewBox="0 0 900 600" width="900" height="600" xmlns="http://www.w3.org/2000/svg" xmlns:xlink="http://www.w3.org/1999/xlink" version="1.1"><rect x="0" y="0" width="900" height="600" fill="#001826"></rect><path d="M0 454L25 454.8C50 455.7 100 457.3 150 466.3C200 475.3 250 491.7 300 499.5C350 507.3 400 506.7 450 499.2C500 491.7 550 477.3 600 468.7C650 460 700 457 750 462.5C800 468 850 482 875 489L900 496L900 601L875 601C850 601 800 601 750 601C700 601 650 601 600 601C550 601 500 601 450 601C400 601 350 601 300 601C250 601 200 601 150 601C100 601 50 601 25 601L0 601Z" fill="#fa7268"></path><path d="M0 477L25 481.3C50 485.7 100 494.3 150 503C200 511.7 250 520.3 300 517.7C350 515 400 501 450 493.2C500 485.3 550 483.7 600 490.8C650 498 700 514 750 520C800 526 850 522 875 520L900 518L900 601L875 601C850 601 800 601 750 601C700 601 650 601 600 601C550 601 500 601 450 601C400 601 350 601 300 601C250 601 200 601 150 601C100 601 50 601 25 601L0 601Z" fill="#ef5f67"></path><path d="M0 545L25 545.7C50 546.3 100 547.7 150 545.8C200 544 250 539 300 538.3C350 537.7 400 541.3 450 543.7C500 546 550 547 600 539.5C650 532 700 516 750 510.7C800 505.3 850 510.7 875 513.3L900 516L900 601L875 601C850 601 800 601 750 601C700 601 650 601 600 601C550 601 500 601 450 601C400 601 350 601 300 601C250 601 200 601 150 601C100 601 50 601 25 601L0 601Z" fill="#e34c67"></path><path d="M0 546L25 544C50 542 100 538 150 540.7C200 543.3 250 552.7 300 552.2C350 551.7 400 541.3 450 540.5C500 539.7 550 548.3 600 554.3C650 560.3 700 563.7 750 564.3C800 565 850 563 875 562L900 561L900 601L875 601C850 601 800 601 750 601C700 601 650 601 600 601C550 601 500 601 450 601C400 601 350 601 300 601C250 601 200 601 150 601C100 601 50 601 25 601L0 601Z" fill="#d53867"></path><path d="M0 553L25 553C50 553 100 553 150 557.3C200 561.7 250 570.3 300 575C350 579.7 400 580.3 450 578.7C500 577 550 573 600 568.2C650 563.3 700 557.7 750 556C800 554.3 850 556.7 875 557.8L900 559L900 601L875 601C850 601 800 601 750 601C700 601 650 601 600 601C550 601 500 601 450 601C400 601 350 601 300 601C250 601 200 601 150 601C100 601 50 601 25 601L0 601Z" fill="#c62368"></path></svg>